<?xml version="1.0" standalone="no"?>
<!DOCTYPE svg PUBLIC "-//W3C//DTD SVG 20010904//EN"
 "http://www.w3.org/TR/2001/REC-SVG-20010904/DTD/svg10.dtd">
<svg version="1.0" xmlns="http://www.w3.org/2000/svg"
 width="2048.000000pt" height="2048.000000pt" viewBox="0 0 2048.000000 2048.000000"
 preserveAspectRatio="xMidYMid meet">

<g transform="translate(0.000000,2048.000000) scale(0.100000,-0.100000)"
fill="#000000" stroke="none">
<path d="M13229 15771 l-94 -88 -124 -26 c-68 -14 -126 -28 -129 -31 -5 -6 21
-39 124 -154 53 -59 73 -89 78 -118 12 -69 48 -194 55 -194 4 0 51 39 105 86
l99 87 120 31 c72 18 122 37 125 45 3 8 -34 51 -87 102 l-91 88 -30 113 c-40
149 -40 148 -49 148 -4 0 -50 -40 -102 -89z"/>
<path d="M12050 15593 l-83 -78 -109 -26 c-59 -14 -111 -29 -114 -32 -4 -3 30
-46 74 -94 79 -87 80 -90 106 -186 39 -147 31 -144 129 -49 l84 83 113 30 c63
16 116 31 119 34 2 3 -34 44 -81 93 -80 82 -86 91 -102 157 -31 125 -37 145
-45 145 -4 0 -45 -35 -91 -77z"/>
<path d="M11162 15370 c-100 -61 -97 -213 7 -274 129 -75 278 70 209 204 -44
85 -140 116 -216 70z"/>
<path d="M14274 15089 l-81 -81 -104 -20 c-57 -11 -110 -23 -118 -28 -11 -6 7
-29 71 -96 l86 -89 27 -112 c15 -66 32 -113 39 -113 6 0 45 33 85 74 l74 75
119 32 c65 18 118 37 118 42 0 6 -36 45 -80 87 l-80 77 -27 113 c-16 63 -33
115 -38 117 -6 2 -46 -33 -91 -78z"/>
<path d="M13019 15092 c-15 -9 -105 -91 -201 -182 -277 -263 -458 -402 -625
-482 -120 -58 -186 -69 -257 -45 -148 51 -329 237 -500 516 -28 47 -64 92 -81
103 -40 24 -111 23 -152 -2 -38 -23 -49 -42 -102 -184 -54 -140 -290 -717
-398 -971 -47 -110 -88 -216 -90 -236 -6 -40 12 -82 49 -116 21 -19 254 -126
476 -218 50 -21 92 -41 92 -44 0 -3 -63 -32 -138 -64 -296 -123 -531 -285
-784 -537 l-157 -157 -88 99 c-415 474 -933 783 -1483 887 -172 32 -304 44
-500 44 -485 0 -919 -98 -1336 -303 -275 -134 -504 -298 -689 -491 -490 -511
-699 -1143 -655 -1974 17 -326 68 -608 166 -925 94 -302 249 -619 461 -943
421 -646 1346 -1678 2318 -2585 678 -633 1316 -1124 1707 -1314 58 -28 129
-24 202 13 146 75 437 263 659 427 912 676 2197 1958 3033 3027 342 437 561
829 677 1215 102 339 146 618 154 990 8 380 -23 642 -112 935 -82 273 -178
470 -342 709 -29 43 -52 80 -51 81 2 2 27 -2 55 -8 46 -9 59 -8 100 9 78 32
75 21 207 749 136 754 139 768 127 812 -17 63 -83 113 -148 113 -14 0 -73 -26
-132 -58 -294 -161 -536 -228 -676 -187 -131 38 -246 212 -382 573 -46 123
-115 360 -148 509 -31 138 -50 180 -95 211 -41 28 -122 30 -161 4z m61 -589
c105 -343 186 -532 311 -719 144 -215 301 -295 559 -281 123 6 222 30 374 91
61 25 112 43 114 41 4 -4 -86 -504 -133 -735 -20 -96 -38 -190 -42 -207 -3
-18 -10 -33 -16 -33 -18 0 -341 61 -502 95 -857 181 -1848 501 -2660 857 -77
34 -141 63 -143 64 -2 1 47 123 109 271 61 147 144 348 184 446 l73 177 53
-67 c76 -98 181 -204 264 -267 181 -139 368 -179 557 -120 107 34 177 70 314
160 134 88 217 153 389 307 71 63 132 113 134 111 2 -2 30 -88 61 -191z
m-4685 -1358 c244 -34 426 -90 640 -195 360 -178 637 -415 920 -786 109 -143
166 -170 263 -123 33 16 67 51 136 138 349 436 757 691 1311 816 l109 24 206
-70 c201 -69 511 -167 780 -247 142 -43 770 -202 879 -223 58 -11 70 -18 132
-77 163 -153 328 -376 429 -577 162 -325 240 -675 240 -1075 0 -491 -83 -902
-269 -1330 -42 -97 -131 -260 -184 -340 -17 -25 -39 -57 -49 -72 -10 -15 -18
-32 -18 -38 0 -5 -4 -10 -8 -10 -4 0 -16 -14 -26 -31 -64 -108 -353 -472 -625
-789 -252 -292 -863 -951 -836 -901 6 9 4 12 -4 7 -6 -4 -9 -11 -6 -15 2 -5
-6 -18 -19 -30 -13 -12 -26 -19 -28 -14 -3 4 -4 3 -2 -3 2 -11 -68 -87 -77
-82 -2 2 -3 1 -2 -1 6 -10 -20 -30 -31 -24 -6 3 -8 2 -3 -2 10 -12 -63 -86
-77 -78 -6 3 -7 2 -3 -2 10 -11 -113 -136 -126 -128 -6 3 -7 2 -4 -4 3 -5 -14
-29 -39 -52 -39 -38 -46 -42 -62 -30 -15 13 -16 12 -4 -3 12 -15 10 -21 -13
-42 -18 -17 -34 -23 -53 -20 -20 3 -23 2 -12 -5 8 -5 19 -7 25 -4 5 2 -37 -40
-95 -95 -57 -55 -109 -98 -115 -95 -5 4 -7 3 -3 -2 13 -14 -176 -189 -195
-179 -6 4 -9 3 -4 -1 10 -11 -33 -56 -46 -48 -6 3 -7 1 -4 -4 7 -11 -42 -49
-56 -45 -5 1 -6 -2 -3 -7 3 -5 -16 -26 -42 -47 -26 -21 -41 -31 -35 -23 7 9 9
19 5 23 -7 8 -9 14 -11 46 -1 17 -8 20 -43 19 -24 0 -38 -3 -32 -5 9 -4 9 -11
0 -29 -9 -20 -19 -25 -48 -25 -31 0 -38 4 -38 20 0 19 0 19 -42 0 -24 -11 -60
-20 -80 -20 -45 0 -54 -27 -10 -32 l27 -3 -28 -27 -29 -27 24 -49 c12 -27 33
-53 46 -59 16 -8 20 -8 16 0 -5 8 -3 8 6 0 9 -9 19 -9 34 -2 12 6 5 -2 -14
-18 -19 -15 -53 -44 -75 -63 -85 -75 -135 -111 -146 -104 -7 4 -9 3 -6 -3 4
-6 -37 -42 -91 -82 -66 -49 -82 -58 -50 -28 37 33 45 46 36 55 -8 8 -9 12 -1
12 6 0 13 -6 15 -12 3 -8 16 -2 35 18 22 22 29 35 22 45 -14 23 -10 71 8 91
15 17 12 18 -86 18 l-103 0 -31 -32 -32 -33 -3 33 c-3 26 -7 32 -28 32 -21 0
-24 4 -24 40 0 36 3 40 25 40 16 0 25 -6 25 -15 0 -12 16 -15 80 -15 63 0 80
3 80 14 0 9 12 16 31 18 l31 3 -25 28 c-33 34 -43 34 -75 -3 -29 -33 -42 -38
-42 -15 0 11 -11 15 -40 15 -33 0 -40 3 -40 20 0 10 -17 36 -37 57 l-38 37 -3
-72 c-2 -39 -6 -72 -9 -72 -7 0 -73 67 -73 75 0 3 14 5 30 5 28 0 30 2 30 40
l0 40 85 0 85 0 45 46 c25 25 45 47 45 50 0 2 -18 4 -40 4 -33 0 -40 -3 -40
-20 0 -17 -7 -20 -40 -20 -22 0 -40 5 -40 10 0 6 -37 10 -90 10 l-90 0 0 40 0
40 -70 0 c-38 0 -70 4 -70 9 0 13 128 22 192 13 41 -6 63 -5 82 5 16 8 26 10
26 3 0 -6 35 -10 90 -10 l90 0 0 30 0 30 -62 0 c-43 0 -67 5 -80 17 -17 15
-18 15 -18 0 0 -13 -9 -17 -40 -17 -29 0 -40 4 -40 15 0 13 -20 15 -120 15
l-120 0 0 25 c0 21 -5 25 -30 25 -30 0 -30 0 -15 -24 9 -13 23 -27 31 -30 8
-3 14 -19 14 -41 l0 -35 -79 0 c-50 0 -81 4 -83 11 -3 8 -14 7 -35 -5 -18 -9
-52 -16 -78 -16 -25 0 -45 -4 -45 -10 0 -5 11 -10 25 -10 23 0 25 -4 25 -40
l0 -40 -120 0 -120 0 0 -79 0 -80 53 -3 52 -3 -35 -19 c-23 -12 -35 -15 -38
-7 -2 6 -21 11 -43 11 -21 0 -39 5 -39 10 0 6 -16 10 -36 10 -29 0 -43 -8 -73
-40 -20 -22 -43 -40 -50 -40 -21 0 -91 -79 -84 -95 4 -11 0 -14 -13 -9 -14 4
-16 3 -5 -4 8 -6 11 -18 6 -33 -4 -16 -3 -20 3 -11 7 11 10 10 16 -3 4 -11 12
-15 22 -11 13 5 14 4 6 -7 -21 -24 1 -28 27 -5 18 17 21 18 11 4 -12 -15 -12
-20 -2 -23 6 -3 12 -10 12 -16 0 -5 -3 -7 -7 -4 -3 4 -11 -1 -18 -10 -10 -14
-27 -4 -136 82 -164 129 -181 146 -169 160 7 9 6 16 -4 24 -11 9 -16 9 -22 0
-4 -7 -3 -9 4 -5 6 3 13 2 16 -3 14 -21 -17 -22 -40 0 -22 21 -22 23 -6 36 15
13 15 13 -5 3 -19 -9 -28 -6 -55 19 -18 16 -44 38 -58 49 -23 19 -23 21 -7 28
10 3 23 2 29 -4 8 -8 4 -9 -13 -5 -23 5 -23 5 -4 -10 14 -11 25 -12 37 -6 14
7 16 6 12 -6 -6 -13 5 -20 28 -16 4 0 5 -6 2 -14 -4 -8 -2 -15 4 -15 6 0 9 8
7 18 -2 9 -4 21 -4 25 -1 5 -5 5 -11 2 -6 -4 -7 1 -3 11 6 16 7 16 18 0 16
-21 88 -22 105 -1 7 8 28 15 46 15 33 0 34 1 34 40 0 22 -4 40 -10 40 -5 0
-10 -11 -10 -25 0 -22 -4 -25 -40 -25 -36 0 -40 3 -40 25 0 14 -4 25 -9 25
-12 0 -20 91 -9 113 12 23 98 25 98 2 0 -11 11 -15 40 -15 38 0 40 2 40 30 l0
30 -80 0 c-50 0 -80 4 -80 11 0 14 -55 69 -69 69 -6 0 -11 7 -11 15 0 11 -12
15 -45 15 -36 0 -51 5 -69 25 -13 14 -28 25 -35 25 -6 0 -11 7 -11 15 0 21
-83 21 -100 0 -7 -8 -19 -15 -26 -15 -11 0 -14 -19 -14 -80 0 -80 0 -81 30
-94 23 -9 27 -15 18 -24 -17 -17 -39 -15 -32 2 5 13 -16 25 -53 32 -18 3 -17
1 17 -34 16 -17 41 -34 54 -38 17 -4 22 -11 19 -25 -4 -13 -1 -18 8 -16 8 2
11 2 7 0 -8 -5 45 -58 55 -55 5 1 6 -2 2 -8 -6 -10 -107 72 -105 86 1 3 -11
14 -27 24 -48 29 -143 121 -136 133 3 5 1 7 -5 4 -5 -4 -65 45 -132 109 -67
65 -116 114 -107 111 8 -3 20 0 26 6 6 6 12 8 12 4 1 -4 3 -11 4 -17 1 -5 3
-17 4 -25 0 -8 6 -15 12 -15 13 0 79 -64 79 -77 0 -5 7 -10 14 -10 8 0 14 5
13 11 -1 6 8 12 21 14 26 4 28 -6 5 -25 -16 -13 -16 -13 5 -3 20 10 27 8 46
-9 12 -12 28 -21 34 -21 7 0 12 -13 12 -28 0 -23 7 -32 35 -45 42 -20 45 -20
45 -6 0 5 -4 7 -10 4 -5 -3 -10 -1 -10 4 0 6 5 11 10 11 6 0 10 27 10 60 0 56
-1 60 -24 60 -37 0 -86 21 -97 41 -8 16 -6 19 15 19 13 0 26 -5 28 -10 2 -7
16 -8 43 -1 l40 9 -42 1 c-39 1 -43 3 -43 26 0 23 4 25 40 25 33 0 40 -3 40
-19 0 -19 1 -19 40 -3 25 11 40 24 40 35 0 15 -11 17 -89 17 -84 0 -90 1 -108
26 -10 14 -26 26 -36 28 -9 1 -23 8 -29 14 -7 7 -22 12 -35 12 -31 0 -29 6 17
51 22 22 40 43 40 49 0 5 -20 10 -45 10 -33 0 -51 6 -67 23 l-23 22 65 3 c39
2 66 -1 68 -7 5 -14 242 -15 242 -1 0 6 25 10 55 10 l55 0 0 -40 0 -40 105 0
c63 0 105 4 105 10 0 6 -33 10 -80 10 l-80 0 0 30 c0 25 4 30 25 30 23 0 25 4
25 40 l0 40 -65 0 -65 0 0 -30 c0 -28 -2 -30 -40 -30 l-40 0 0 40 0 40 -40 0
c-29 0 -40 4 -40 15 0 11 -11 15 -40 15 -29 0 -40 4 -40 15 0 11 11 15 40 15
22 0 40 5 40 10 0 6 -22 10 -50 10 -27 0 -50 -4 -50 -10 0 -5 -25 -10 -56 -10
-47 0 -57 -3 -61 -20 -3 -11 -14 -20 -25 -20 -24 0 -58 -18 -58 -30 0 -6 14
-10 30 -10 20 0 30 -5 30 -15 0 -12 -15 -15 -79 -15 -50 0 -81 -4 -83 -11 -3
-8 -14 -7 -35 5 -30 15 -33 15 -41 0 -6 -11 -8 7 -5 50 l5 66 -40 0 c-37 0
-41 3 -44 28 l-3 27 -26 -27 c-15 -16 -36 -28 -48 -28 -14 0 -21 -6 -21 -20 0
-11 -4 -20 -10 -20 -5 0 -10 5 -10 11 0 5 -8 9 -17 7 -10 -1 -24 1 -30 5 -8 5
-13 4 -13 -2 0 -6 0 -14 0 -18 0 -5 4 -8 10 -8 5 0 15 -8 22 -18 7 -10 23 -19
35 -20 12 0 19 -5 17 -9 -3 -5 -10 -6 -15 -3 -5 4 -9 1 -9 -4 0 -6 5 -11 11
-11 5 0 8 -4 5 -9 -3 -5 1 -11 9 -15 17 -6 20 5 6 19 -6 6 -4 18 5 30 15 20
15 20 26 1 6 -11 22 -30 35 -42 29 -27 24 -42 -12 -39 -14 2 -25 -1 -25 -6 0
-24 -32 -2 -104 70 -43 43 -76 84 -72 89 3 6 1 14 -5 18 -8 4 -9 3 -5 -4 15
-24 -9 -11 -46 25 -36 35 -51 62 -26 47 7 -4 8 -3 4 5 -4 6 -12 8 -18 5 -6 -4
-49 33 -96 82 -214 224 -297 316 -294 326 1 5 -2 7 -7 4 -5 -3 -53 42 -107
101 -55 58 -104 111 -109 117 -73 78 -272 315 -268 320 4 3 1 6 -5 6 -12 0
-130 135 -283 325 -131 163 -150 190 -141 199 4 4 2 6 -5 4 -16 -4 -253 316
-328 444 -5 9 -30 50 -55 90 -335 548 -516 1279 -472 1905 27 380 91 633 227
890 190 361 483 651 856 851 273 146 627 251 949 281 63 6 133 13 155 15 73 7
368 -4 470 -19z m-152 -6102 c-7 -2 -19 -2 -25 0 -7 3 -2 5 12 5 14 0 19 -2
13 -5z m47 -24 c16 -30 8 -31 -13 -3 -10 13 -13 24 -8 24 6 0 15 -9 21 -21z
m377 -16 l35 -38 -25 -3 c-24 -3 -52 17 -86 61 -12 15 -11 17 13 17 19 0 39
-12 63 -37z m183 7 c0 -25 -4 -30 -25 -30 -21 0 -25 5 -25 30 0 25 4 30 25 30
21 0 25 -5 25 -30z m-580 -10 c12 -8 11 -10 -7 -10 -13 0 -23 5 -23 10 0 13
11 13 30 0z m100 -79 c0 -22 -4 -41 -9 -43 -16 -5 -17 -91 -2 -96 8 -3 11 0 8
5 -4 6 7 10 23 11 23 0 30 -4 30 -19 0 -10 4 -19 10 -19 10 0 3 -27 -13 -48
-8 -10 -21 -2 -58 34 -27 26 -46 51 -43 55 2 4 -1 11 -7 15 -8 5 -9 3 -4 -7 5
-8 -21 14 -58 48 -70 65 -77 75 -56 82 8 2 10 -2 6 -13 -5 -12 -1 -16 15 -16
14 0 18 4 12 13 -5 7 -2 6 6 -3 9 -9 32 -19 53 -23 35 -5 37 -4 37 22 0 32 7
41 32 41 14 0 18 -8 18 -39z m548 -593 c-2 -6 -10 -14 -16 -16 -7 -2 -10 2 -6
12 7 18 28 22 22 4z m36 -16 c2 -4 1 -14 -4 -22 -7 -12 -12 -12 -22 -2 -9 9
-8 12 8 12 16 0 17 2 4 10 -9 6 -10 10 -3 10 6 0 14 -4 17 -8z m3 -64 c-3 -8
-6 -5 -6 6 -1 11 2 17 5 13 3 -3 4 -12 1 -19z m1058 2 c3 -5 1 -10 -4 -10 -6
0 -11 5 -11 10 0 6 2 10 4 10 3 0 8 -4 11 -10z m-935 -19 c0 -11 -49 -21 -55
-11 -2 4 -2 10 2 14 10 9 53 7 53 -3z m40 -11 c0 -11 -4 -20 -9 -20 -6 0 -9 9
-8 20 1 11 5 20 9 20 4 0 8 -9 8 -20z m-120 -25 c11 -13 10 -14 -5 -9 -14 6
-16 4 -10 -7 8 -12 6 -12 -8 0 -18 15 -23 26 -7 16 6 -3 10 -1 10 4 0 15 5 14
20 -4z m2224 -65 c-6 -6 -10 -3 -10 10 0 13 4 16 10 10 7 -7 7 -13 0 -20z
m-1304 -65 c0 -19 -21 -19 -46 0 -18 14 -17 14 14 15 22 0 32 -5 32 -15z m240
5 c0 -5 -2 -10 -4 -10 -3 0 -8 5 -11 10 -3 6 -1 10 4 10 6 0 11 -4 11 -10z
m140 -70 l0 -80 -30 0 -30 0 0 80 0 80 30 0 30 0 0 -80z m865 50 c-16 -16 -33
-30 -39 -30 -9 0 53 59 63 60 3 0 -8 -13 -24 -30z m-1564 -130 c-24 -21 -101
-28 -101 -10 0 6 23 10 50 10 28 0 50 5 50 10 0 6 6 10 13 10 6 -1 1 -10 -12
-20z m879 -1 c0 -11 -4 -17 -10 -14 -20 12 -9 -16 15 -40 14 -15 36 -25 53
-25 26 0 29 -3 24 -25 -4 -21 -10 -25 -42 -25 -22 0 -46 7 -55 16 -10 10 -24
14 -40 10 -18 -5 -25 -2 -25 8 0 8 10 16 23 18 l22 3 -22 20 c-14 11 -23 31
-23 47 0 26 3 28 40 28 34 0 40 -3 40 -21z m-600 -39 c0 -33 3 -40 20 -40 17
0 20 -7 20 -40 l0 -40 80 0 80 0 0 -50 c0 -46 2 -50 23 -50 16 0 28 -9 37 -27
l14 -28 4 28 c3 24 7 27 43 27 37 0 39 -2 39 -30 0 -23 -4 -30 -20 -30 -17 0
-20 -7 -20 -40 0 -22 -4 -40 -10 -40 -5 0 -10 18 -10 40 0 36 -2 40 -25 40
-22 0 -25 -4 -25 -39 0 -28 -5 -40 -16 -43 -13 -2 -11 -8 10 -31 23 -25 28
-27 41 -13 8 8 15 19 15 25 0 7 8 7 24 -1 20 -8 28 -7 41 6 9 9 12 16 6 16 -6
0 -11 5 -11 10 0 6 9 10 19 10 11 0 22 6 24 13 4 9 8 9 15 -1 5 -8 20 -12 33
-10 18 2 24 -2 23 -14 -1 -13 5 -16 27 -13 16 2 27 0 24 -5 -3 -5 3 -10 12
-12 13 -3 0 -15 -42 -42 -86 -56 -190 -112 -181 -98 5 8 2 10 -8 6 -19 -7 -21
7 -3 25 10 11 9 13 -5 8 -14 -5 -18 -1 -18 18 0 27 -15 34 -23 11 -3 -8 1 -20
9 -26 17 -15 18 -40 2 -41 -7 -1 -2 -4 12 -8 l25 -7 -23 -13 c-20 -11 -35 -5
-142 58 -147 86 -286 180 -283 192 2 4 -3 6 -11 3 -8 -3 -17 -1 -21 5 -3 7 2
11 15 11 11 0 23 -7 26 -15 8 -19 24 -19 60 0 l29 15 -27 0 c-16 0 -28 -5 -28
-11 0 -5 -5 -7 -11 -3 -6 3 -7 9 -3 13 5 3 24 25 42 48 39 51 46 113 12 113
-17 0 -20 7 -20 40 0 30 -4 40 -16 40 -12 0 -8 10 16 40 21 27 40 40 56 40 21
0 24 -4 24 -40z m-400 0 c0 -21 -24 -28 -35 -10 -8 14 3 30 21 30 8 0 14 -9
14 -20z m128 -62 c4 -23 -36 -45 -44 -23 -9 23 4 47 23 43 10 -2 19 -11 21
-20z m-70 -68 c18 -20 59 -19 46 1 -3 5 0 9 5 9 18 0 13 -18 -9 -33 -21 -14
-17 -29 5 -21 7 3 15 -4 18 -15 3 -12 3 -21 1 -21 -13 0 -62 44 -58 52 3 4 -4
8 -14 8 -22 0 -46 23 -35 33 11 11 21 8 41 -13z m102 -1 c0 -5 9 -9 20 -9 11
0 20 -4 20 -10 0 -15 -22 -12 -48 6 -25 17 -30 36 -7 28 8 -4 15 -10 15 -15z
m1085 -20 c-4 -5 -12 -9 -18 -8 -9 0 -8 2 1 6 6 2 9 10 6 15 -4 7 -2 8 5 4 6
-4 9 -12 6 -17z m-48 5 c-3 -3 -12 -4 -19 -1 -8 3 -5 6 6 6 11 1 17 -2 13 -5z
m-502 -44 c3 -5 1 -10 -4 -10 -6 0 -11 5 -11 10 0 6 2 10 4 10 3 0 8 -4 11
-10z m-541 -25 c-4 -9 0 -15 9 -15 8 0 20 -7 27 -15 16 -20 0 -19 -28 1 -22
15 -30 44 -12 44 5 0 7 -7 4 -15z m943 -32 c-4 -3 -2 -12 3 -18 7 -9 5 -17 -7
-26 -16 -13 -17 -12 -5 3 9 11 10 18 2 23 -10 6 -5 25 7 25 4 0 3 -3 0 -7z"/>
<path d="M11319 14056 c-94 -64 -71 -211 38 -247 89 -29 183 42 183 137 0 105
-131 171 -221 110z"/>
<path d="M12620 13889 c-96 -56 -179 -104 -183 -109 -5 -4 2 -25 16 -46 13
-22 59 -103 102 -182 61 -112 81 -142 94 -137 13 5 165 89 329 182 48 27 49
16 -18 133 -20 36 -61 109 -90 163 -29 53 -58 97 -64 97 -6 -1 -90 -46 -186
-101z"/>
<path d="M13943 13260 c-44 -27 -66 -64 -66 -113 0 -125 128 -189 227 -114
135 103 -16 316 -161 227z"/>
<path d="M7390 12189 c0 -5 -4 -8 -9 -4 -5 3 -12 1 -15 -4 -4 -5 2 -8 11 -7
15 3 33 26 19 26 -3 0 -6 -5 -6 -11z"/>
<path d="M6654 11773 c3 -8 -2 -13 -14 -13 -11 0 -20 -5 -20 -11 0 -5 5 -7 12
-3 7 5 8 3 3 -5 -5 -9 -10 -10 -18 -2 -17 17 -27 13 -21 -6 5 -17 5 -17 -9 0
-14 17 -15 17 -14 -5 0 -13 -4 -32 -8 -42 -6 -15 -5 -17 5 -11 8 5 11 4 6 -3
-4 -6 -12 -9 -19 -6 -13 5 -47 -54 -47 -81 0 -8 -5 -15 -11 -15 -5 0 -7 -5 -3
-11 4 -8 9 -7 15 2 7 12 9 11 9 -1 0 -10 4 -9 14 6 8 11 14 27 14 35 -2 31 2
49 12 49 5 0 7 -8 3 -17 -9 -25 -3 -18 64 72 47 64 56 81 41 81 -11 0 -16 -6
-14 -13z m-121 -188 c-3 -9 -8 -14 -10 -11 -3 3 -2 9 2 15 9 16 15 13 8 -4z"/>
<path d="M8746 10655 c-79 -28 -144 -99 -172 -188 -21 -67 -30 -256 -15 -327
24 -116 91 -217 166 -251 96 -44 223 -9 290 78 65 85 79 140 79 298 1 107 -4
154 -18 198 -49 158 -193 241 -330 192z"/>
<path d="M11392 10660 c-113 -27 -183 -137 -202 -318 -19 -177 18 -312 110
-403 91 -92 180 -101 293 -29 94 59 141 186 140 375 -2 268 -142 422 -341 375z"/>
<path d="M9544 9899 c-18 -5 -46 -26 -64 -46 -31 -34 -32 -40 -28 -97 14 -165
148 -335 333 -422 131 -61 218 -77 384 -71 82 3 160 11 196 21 192 53 346 178
427 346 39 79 45 177 15 222 -28 40 -93 62 -145 49 -23 -7 -44 -16 -47 -22 -5
-6 -12 -6 -23 3 -14 10 -15 10 -6 -1 9 -10 4 -29 -24 -83 -89 -173 -214 -243
-434 -240 -206 2 -326 72 -411 242 -43 85 -102 119 -173 99z"/>
<path d="M7962 9879 c-157 -33 -268 -92 -304 -163 -17 -34 -19 -44 -8 -75 15
-45 25 -59 75 -97 107 -81 327 -123 575 -110 137 7 217 25 327 76 91 43 117
62 132 103 32 82 -4 149 -103 196 -164 77 -234 91 -438 90 -121 0 -187 -5
-256 -20z"/>
<path d="M11870 9877 c-63 -12 -128 -30 -145 -39 -16 -9 -51 -24 -77 -33 -25
-9 -49 -23 -52 -30 -3 -8 -12 -15 -20 -15 -16 0 -46 -58 -46 -89 0 -39 27 -88
61 -112 19 -12 36 -26 39 -29 8 -10 112 -50 169 -65 208 -55 535 -35 716 43
47 20 49 21 98 64 34 30 38 38 39 84 0 41 -5 59 -25 86 -78 102 -214 146 -477
153 -143 4 -180 2 -280 -18z m163 -4 c-7 -2 -19 -2 -25 0 -7 3 -2 5 12 5 14 0
19 -2 13 -5z m-86 -9 c-3 -3 -12 -4 -19 -1 -8 3 -5 6 6 6 11 1 17 -2 13 -5z
m63 -13 c0 -5 -9 -7 -20 -4 -11 3 -20 7 -20 9 0 2 9 4 20 4 11 0 20 -4 20 -9z
m-67 -8 c-13 -2 -33 -2 -45 0 -13 2 -3 4 22 4 25 0 35 -2 23 -4z m-233 -53 c0
-5 -7 -10 -15 -10 -8 0 -15 5 -15 10 0 6 7 10 15 10 8 0 15 -4 15 -10z m50
-20 c0 -5 -10 -10 -22 -10 -19 0 -20 2 -8 10 19 13 30 13 30 0z"/>
<path d="M9740 9800 c0 -5 5 -10 10 -10 6 0 10 5 10 10 0 6 -4 10 -10 10 -5 0
-10 -4 -10 -10z"/>
<path d="M9465 9589 c-4 -6 -4 -13 -1 -16 3 -4 6 -1 6 6 0 7 5 9 10 6 6 -3 10
-1 10 4 0 14 -17 14 -25 0z"/>
<path d="M6586 8712 c-2 -4 4 -8 14 -8 10 0 16 4 14 8 -3 4 -9 8 -14 8 -5 0
-11 -4 -14 -8z"/>
<path d="M7186 7988 c3 -4 9 -8 15 -8 5 0 9 4 9 8 0 5 -7 9 -15 9 -8 0 -12 -4
-9 -9z"/>
<path d="M8000 7930 c0 -5 5 -10 10 -10 6 0 10 5 10 10 0 6 -4 10 -10 10 -5 0
-10 -4 -10 -10z"/>
<path d="M8480 7855 c0 -8 9 -15 20 -15 11 0 20 2 20 5 0 2 -9 9 -20 15 -16 9
-20 8 -20 -5z"/>
<path d="M7575 7591 c-3 -5 -2 -12 3 -15 5 -3 9 1 9 9 0 17 -3 19 -12 6z"/>
<path d="M8080 7350 c0 -5 18 -10 40 -10 22 0 40 5 40 10 0 6 -18 10 -40 10
-22 0 -40 -4 -40 -10z"/>
<path d="M9520 7290 c0 -5 9 -10 21 -10 11 0 17 5 14 10 -3 6 -13 10 -21 10
-8 0 -14 -4 -14 -10z"/>
<path d="M8060 7270 c0 -5 9 -10 20 -10 11 0 20 5 20 10 0 6 -9 10 -20 10 -11
0 -20 -4 -20 -10z"/>
<path d="M9357 7218 c-5 -17 3 -48 13 -48 5 0 15 7 24 15 8 8 22 15 30 15 9 0
16 7 16 15 0 19 -76 21 -83 3z"/>
<path d="M8320 7210 c0 -5 5 -10 11 -10 5 0 7 5 4 10 -3 6 -8 10 -11 10 -2 0
-4 -4 -4 -10z"/>
<path d="M8068 7203 c7 -3 16 -2 19 1 4 3 -2 6 -13 5 -11 0 -14 -3 -6 -6z"/>
<path d="M8001 7193 c-1 -7 -11 -10 -28 -7 l-26 5 24 -20 c20 -16 25 -17 32
-5 5 8 6 20 3 27 -3 9 -5 9 -5 0z"/>
<path d="M8700 7190 c0 -5 5 -10 10 -10 6 0 10 5 10 10 0 6 -4 10 -10 10 -5 0
-10 -4 -10 -10z"/>
<path d="M9280 7189 c0 -5 5 -7 10 -4 6 3 10 8 10 11 0 2 -4 4 -10 4 -5 0 -10
-5 -10 -11z"/>
<path d="M12243 7103 c0 -9 4 -10 14 -2 7 6 13 12 13 14 0 1 -6 2 -13 2 -8 0
-14 -6 -14 -14z"/>
<path d="M8026 7093 c-6 -14 -5 -15 5 -6 7 7 10 15 7 18 -3 3 -9 -2 -12 -12z"/>
<path d="M8076 7038 c10 -14 21 -24 23 -22 3 3 -6 15 -18 27 l-24 22 19 -27z"/>
<path d="M9840 7050 c0 -5 18 -10 40 -10 22 0 40 5 40 10 0 6 -18 10 -40 10
-22 0 -40 -4 -40 -10z"/>
<path d="M10480 7050 c0 -5 5 -10 11 -10 5 0 7 5 4 10 -3 6 -8 10 -11 10 -2 0
-4 -4 -4 -10z"/>
<path d="M9538 7043 c12 -2 32 -2 45 0 12 2 2 4 -23 4 -25 0 -35 -2 -22 -4z"/>
<path d="M9153 7005 c-18 -19 -33 -37 -33 -40 0 -3 36 -5 80 -5 92 0 106 15
40 45 -22 10 -40 22 -40 27 0 16 -15 7 -47 -27z"/>
<path d="M9638 7010 l-26 -30 34 0 c31 0 34 3 34 30 0 17 -3 30 -8 30 -4 0
-19 -13 -34 -30z"/>
<path d="M10080 7030 c0 -5 18 -10 40 -10 22 0 40 5 40 10 0 6 -18 10 -40 10
-22 0 -40 -4 -40 -10z"/>
<path d="M9920 6998 c0 -14 -9 -18 -40 -18 -22 0 -40 5 -40 10 0 6 -18 10 -40
10 -38 0 -40 -2 -40 -30 0 -28 2 -30 40 -30 22 0 40 5 40 10 0 6 7 10 15 10 8
0 15 -4 15 -10 0 -5 11 -10 25 -10 14 0 25 5 25 10 0 6 7 10 15 10 19 0 19 11
0 36 -13 17 -14 17 -15 2z"/>
<path d="M10265 6982 l-30 -17 83 -3 c45 -2 82 -7 82 -12 0 -6 18 -10 40 -10
22 0 40 5 40 10 0 6 33 10 80 10 44 0 80 4 80 8 0 14 -233 37 -238 24 -2 -8
-11 -8 -28 -1 -37 13 -75 10 -109 -9z"/>
<path d="M11920 6980 c0 -17 7 -20 40 -20 33 0 40 3 40 20 0 17 -7 20 -40 20
-33 0 -40 -3 -40 -20z"/>
<path d="M9440 6970 c0 -6 -28 -10 -65 -10 l-65 0 0 -40 0 -40 65 0 65 0 0
-40 c0 -30 -4 -40 -16 -40 -14 0 -15 -2 -3 -17 13 -15 14 -15 17 0 3 14 17 17
83 17 67 0 79 3 79 17 0 15 1 15 18 0 12 -11 36 -17 64 -17 46 0 58 8 86 58
12 22 11 22 -38 22 -38 0 -50 4 -50 15 0 11 -11 15 -40 15 -22 0 -40 4 -40 9
0 5 -11 12 -25 15 -14 4 -25 11 -25 16 0 6 -7 10 -15 10 -8 0 -15 5 -15 10 0
6 -18 10 -40 10 -22 0 -40 -4 -40 -10z"/>
<path d="M9870 6893 c0 -5 11 -13 25 -20 22 -10 25 -9 25 8 0 14 -7 19 -25 19
-14 0 -25 -3 -25 -7z"/>
<path d="M11760 6888 c0 -3 -12 -8 -27 -10 l-28 -3 25 -25 25 -25 3 27 c3 24
8 27 45 30 l42 3 -42 5 c-24 3 -43 2 -43 -2z"/>
<path d="M11890 6866 c0 -16 18 -31 27 -22 3 3 -2 12 -11 21 -14 14 -16 14
-16 1z"/>
<path d="M9006 6835 l-28 -30 27 -3 c34 -4 37 -1 33 35 l-3 28 -29 -30z"/>
<path d="M10800 6815 c0 -13 20 -15 123 -15 111 1 120 2 97 15 -29 17 -60 19
-60 5 0 -5 -18 -10 -40 -10 -22 0 -40 5 -40 10 0 6 -18 10 -40 10 -29 0 -40
-4 -40 -15z"/>
<path d="M10560 6810 c0 -5 18 -10 40 -10 22 0 40 5 40 10 0 6 -18 10 -40 10
-22 0 -40 -4 -40 -10z"/>
<path d="M11840 6810 c0 -5 5 -10 10 -10 6 0 10 5 10 10 0 6 -4 10 -10 10 -5
0 -10 -4 -10 -10z"/>
<path d="M10060 6760 c0 -38 -2 -40 -30 -40 -25 0 -30 -4 -30 -25 0 -14 -5
-25 -11 -25 -6 0 -4 -7 5 -15 8 -8 31 -15 50 -15 35 0 36 1 36 40 l0 40 50 0
50 0 0 40 c0 22 -4 40 -10 40 -5 0 -10 -13 -10 -30 0 -28 -2 -30 -40 -30 -38
0 -40 2 -40 30 0 17 -4 30 -10 30 -5 0 -10 -18 -10 -40z"/>
<path d="M10300 6760 l0 -40 50 0 c28 0 50 5 50 10 0 6 -18 10 -40 10 -38 0
-40 2 -40 30 0 17 -4 30 -10 30 -5 0 -10 -18 -10 -40z"/>
<path d="M11760 6775 c0 -22 3 -24 19 -16 31 17 34 41 6 41 -20 0 -25 -5 -25
-25z"/>
<path d="M9600 6755 c0 -12 13 -15 63 -15 57 1 60 2 43 15 -27 20 -106 20
-106 0z"/>
<path d="M8915 6696 c22 -33 45 -41 45 -16 0 18 7 20 71 20 44 0 68 4 64 10
-3 6 -49 10 -101 10 l-94 0 15 -24z"/>
<path d="M11440 6680 c0 -40 0 -40 39 -40 22 0 41 -4 43 -9 6 -16 98 -20 113
-5 7 8 21 14 29 14 9 0 16 5 16 10 0 6 -33 10 -80 10 l-80 0 0 30 c0 28 -2 30
-40 30 l-40 0 0 -40z"/>
<path d="M11690 6710 c17 -11 80 -10 80 2 0 4 -21 8 -47 8 -35 0 -44 -3 -33
-10z"/>
<path d="M11820 6710 c0 -5 5 -10 11 -10 5 0 7 5 4 10 -3 6 -8 10 -11 10 -2 0
-4 -4 -4 -10z"/>
<path d="M10640 6665 c0 -20 5 -25 25 -25 22 0 24 3 16 19 -17 31 -41 34 -41
6z"/>
<path d="M11824 6676 c-10 -8 -16 -17 -13 -20 3 -3 14 3 24 14 21 23 17 26
-11 6z"/>
<path d="M11762 6668 c5 -15 28 -23 28 -10 0 5 -7 13 -16 16 -10 4 -14 1 -12
-6z"/>
<path d="M9040 6655 c0 -8 7 -15 16 -15 14 0 14 3 4 15 -7 8 -14 15 -16 15 -2
0 -4 -7 -4 -15z"/>
<path d="M9360 6655 c0 -11 -11 -15 -40 -15 -29 0 -40 -4 -40 -15 0 -11 11
-15 40 -15 29 0 40 4 40 15 0 9 9 15 25 15 28 0 34 15 9 24 -25 10 -34 7 -34
-9z"/>
<path d="M9120 6650 c0 -5 18 -10 40 -10 22 0 40 5 40 10 0 6 -18 10 -40 10
-22 0 -40 -4 -40 -10z"/>
<path d="M10560 6600 l0 -40 80 0 c79 0 80 0 80 -25 0 -25 1 -25 80 -25 64 0
80 -3 80 -15 0 -11 12 -15 50 -15 l50 0 0 36 c0 54 -17 64 -104 64 -44 0 -76
-4 -76 -10 0 -5 -18 -10 -40 -10 -22 0 -40 5 -40 10 0 6 -21 10 -46 10 -38 0
-50 5 -72 30 -15 17 -30 30 -34 30 -5 0 -8 -18 -8 -40z"/>
<path d="M11763 6620 c1 -21 10 -18 13 5 1 8 -2 15 -6 15 -5 0 -8 -9 -7 -20z"/>
<path d="M11680 6609 c0 -5 5 -7 10 -4 6 3 10 8 10 11 0 2 -4 4 -10 4 -5 0
-10 -5 -10 -11z"/>
<path d="M11706 6601 c-5 -8 -3 -17 5 -22 17 -11 39 -12 23 -1 -6 4 -13 14
-16 22 -3 11 -6 11 -12 1z"/>
<path d="M11691 6563 c-1 -17 16 -25 25 -12 4 7 3 9 -4 5 -5 -3 -13 0 -15 6
-4 9 -6 10 -6 1z"/>
<path d="M9200 6544 c0 -14 3 -14 15 -4 8 7 15 14 15 16 0 2 -7 4 -15 4 -8 0
-15 -7 -15 -16z"/>
<path d="M10320 6545 c0 -11 11 -15 40 -15 29 0 40 4 40 15 0 11 -11 15 -40
15 -29 0 -40 -4 -40 -15z"/>
<path d="M11625 6550 c3 -5 8 -10 11 -10 2 0 4 5 4 10 0 6 -5 10 -11 10 -5 0
-7 -4 -4 -10z"/>
<path d="M11525 6471 c-6 -11 9 -23 19 -14 9 9 7 23 -3 23 -6 0 -12 -4 -16 -9z"/>
<path d="M11546 6433 c-6 -14 -5 -15 5 -6 7 7 10 15 7 18 -3 3 -9 -2 -12 -12z"/>
<path d="M9600 6395 c0 -22 4 -25 40 -25 29 0 40 4 40 15 0 9 -9 15 -24 15
-14 0 -28 5 -31 10 -11 18 -25 10 -25 -15z"/>
<path d="M11040 6410 c0 -5 18 -10 40 -10 22 0 40 5 40 10 0 6 -18 10 -40 10
-22 0 -40 -4 -40 -10z"/>
<path d="M9440 6384 c0 -14 3 -14 15 -4 8 7 15 14 15 16 0 2 -7 4 -15 4 -8 0
-15 -7 -15 -16z"/>
<path d="M10880 6335 c0 -8 7 -15 16 -15 14 0 14 3 4 15 -7 8 -14 15 -16 15
-2 0 -4 -7 -4 -15z"/>
<path d="M9580 6255 c-10 -12 -10 -15 4 -15 9 0 16 7 16 15 0 8 -2 15 -4 15
-2 0 -9 -7 -16 -15z"/>
<path d="M11304 6223 c10 -10 46 -11 40 -1 -3 4 -15 8 -26 8 -12 0 -18 -3 -14
-7z"/>
<path d="M11295 6190 c3 -5 8 -10 11 -10 2 0 4 5 4 10 0 6 -5 10 -11 10 -5 0
-7 -4 -4 -10z"/>
<path d="M10860 6095 c-10 -12 -10 -15 4 -15 9 0 16 7 16 15 0 8 -2 15 -4 15
-2 0 -9 -7 -16 -15z"/>
<path d="M9160 6070 c0 -9 58 -11 64 -2 3 5 -10 9 -29 9 -19 0 -35 -3 -35 -7z"/>
<path d="M10930 6076 c0 -2 7 -9 15 -16 12 -10 15 -10 15 4 0 9 -7 16 -15 16
-8 0 -15 -2 -15 -4z"/>
<path d="M10800 5970 c0 -35 20 -32 45 6 15 24 15 24 -15 24 -27 0 -30 -3 -30
-30z"/>
<path d="M10971 5991 c-24 -15 -4 -30 23 -18 16 8 21 14 13 19 -15 10 -19 10
-36 -1z"/>
<path d="M11005 5956 c-18 -13 -18 -14 8 -9 15 3 30 9 33 14 8 14 -20 10 -41
-5z"/>
<path d="M10980 5919 c0 -5 5 -7 10 -4 6 3 10 8 10 11 0 2 -4 4 -10 4 -5 0
-10 -5 -10 -11z"/>
<path d="M9378 5913 c7 -3 16 -2 19 1 4 3 -2 6 -13 5 -11 0 -14 -3 -6 -6z"/>
<path d="M9377 5893 c-4 -3 -7 -11 -7 -17 0 -6 5 -5 12 2 6 6 9 14 7 17 -3 3
-9 2 -12 -2z"/>
<path d="M10880 5875 c0 -16 16 -20 24 -6 3 5 -1 11 -9 15 -9 3 -15 0 -15 -9z"/>
<path d="M8255 6870 c-4 -6 -3 -10 2 -9 23 4 32 -2 26 -18 -6 -15 -4 -16 9 -6
8 7 19 9 24 5 4 -4 3 0 -4 9 -6 9 -10 18 -7 20 2 3 -7 6 -20 7 -13 1 -27 -3
-30 -8z"/>
<path d="M8380 6775 c-7 -8 -17 -12 -24 -8 -6 3 0 -6 13 -20 29 -32 31 -33 26
-7 -2 11 0 22 6 25 11 8 12 25 0 25 -5 0 -14 -7 -21 -15z m7 -20 c0 -8 -4 -12
-9 -9 -5 3 -6 10 -3 15 9 13 12 11 12 -6z"/>
<path d="M9840 5665 c0 -11 11 -15 40 -15 29 0 40 4 40 15 0 11 -11 15 -40 15
-29 0 -40 -4 -40 -15z"/>
<path d="M10020 5580 c0 -11 5 -20 10 -20 6 0 10 -4 10 -10 0 -5 -9 -10 -20
-10 -28 0 -25 -13 7 -27 46 -22 53 -17 53 37 0 49 -1 50 -30 50 -23 0 -30 -4
-30 -20z"/>
<path d="M9803 5565 c0 -7 6 -11 14 -8 7 3 13 6 13 8 0 2 -6 5 -13 8 -8 3 -14
-1 -14 -8z"/>
<path d="M10176 5433 c5 -5 12 -12 16 -18 4 -6 8 -2 8 8 0 9 -7 17 -17 17 -9
0 -12 -3 -7 -7z"/>
<path d="M14795 14360 c-17 -5 -46 -25 -64 -44 -27 -27 -35 -45 -39 -84 -8
-91 46 -160 134 -170 55 -6 95 11 134 55 25 28 30 42 30 86 0 90 -47 148 -130
161 -19 2 -49 1 -65 -4z"/>
</g>
</svg>
